<mxfile host="app.diagrams.net" modified="2024-05-25T11:21:45.671Z" agent="Mozilla/5.0 (Windows NT 10.0; Win64; x64) AppleWebKit/537.36 (KHTML, like Gecko) Chrome/125.0.0.0 Safari/537.36" etag="z3nv83WxM9g3ry31Wlgj" version="24.4.8" type="device">
  <diagram name="Page-1" id="K-VeMLnK4-t9lFMGhv2i">
    <mxGraphModel dx="2901" dy="1140" grid="1" gridSize="10" guides="1" tooltips="1" connect="1" arrows="1" fold="1" page="1" pageScale="1" pageWidth="827" pageHeight="1169" background="#ffffff" math="0" shadow="1">
      <root>
        <mxCell id="0" />
        <mxCell id="1" parent="0" />
        <object label="&lt;font style=&quot;font-size: 19px;&quot;&gt;Mock Data Generator&lt;/font&gt;" id="cBjfW2Xew3AkW9xZPRjr-1">
          <mxCell style="rounded=1;whiteSpace=wrap;html=1;shadow=1;fillColor=#dae8fc;gradientColor=#7ea6e0;strokeColor=#6c8ebf;" parent="1" vertex="1">
            <mxGeometry x="-560" y="160" width="160" height="110" as="geometry" />
          </mxCell>
        </object>
        <mxCell id="cBjfW2Xew3AkW9xZPRjr-3" value="&lt;font style=&quot;font-size: 20px;&quot;&gt;Event Bridge Pipe&lt;/font&gt;" style="shape=process;whiteSpace=wrap;html=1;backgroundOutline=1;rounded=1;shadow=1;glass=0;fillColor=#dae8fc;strokeColor=#6c8ebf;gradientColor=#7ea6e0;" parent="1" vertex="1">
          <mxGeometry x="160" y="175" width="190" height="85" as="geometry" />
        </mxCell>
        <mxCell id="cBjfW2Xew3AkW9xZPRjr-15" value="" style="shape=flexArrow;endArrow=classic;html=1;rounded=0;width=8;endSize=12;fillColor=#96EEFF;startSize=28.67;" parent="1" edge="1">
          <mxGeometry width="50" height="50" relative="1" as="geometry">
            <mxPoint x="-400" y="220" as="sourcePoint" />
            <mxPoint x="-160" y="220" as="targetPoint" />
          </mxGeometry>
        </mxCell>
        <mxCell id="cBjfW2Xew3AkW9xZPRjr-16" value="" style="shape=flexArrow;endArrow=classic;html=1;rounded=0;fillColor=#96EEFF;" parent="1" edge="1">
          <mxGeometry width="50" height="50" relative="1" as="geometry">
            <mxPoint x="-30" y="220" as="sourcePoint" />
            <mxPoint x="150" y="221" as="targetPoint" />
            <Array as="points">
              <mxPoint x="-10" y="219.5" />
            </Array>
          </mxGeometry>
        </mxCell>
        <mxCell id="cBjfW2Xew3AkW9xZPRjr-17" value="" style="shape=flexArrow;endArrow=classic;html=1;rounded=0;entryX=0;entryY=0.5;entryDx=0;entryDy=0;entryPerimeter=0;fillColor=#96EEFF;" parent="1" target="yolbm6bxUlIt4TcBzOvf-11" edge="1">
          <mxGeometry width="50" height="50" relative="1" as="geometry">
            <mxPoint x="350" y="219.5" as="sourcePoint" />
            <mxPoint x="514" y="220.03999999999996" as="targetPoint" />
            <Array as="points">
              <mxPoint x="400" y="219.5" />
            </Array>
          </mxGeometry>
        </mxCell>
        <mxCell id="cBjfW2Xew3AkW9xZPRjr-18" value="" style="shape=flexArrow;endArrow=classic;html=1;rounded=0;width=7;endSize=11.69;fillColor=#96EEFF;" parent="1" edge="1">
          <mxGeometry width="50" height="50" relative="1" as="geometry">
            <mxPoint x="620" y="290" as="sourcePoint" />
            <mxPoint x="620" y="440" as="targetPoint" />
          </mxGeometry>
        </mxCell>
        <mxCell id="cBjfW2Xew3AkW9xZPRjr-21" value="" style="shape=flexArrow;endArrow=classic;html=1;rounded=0;width=7;endSize=11.69;entryX=0;entryY=0.75;entryDx=0;entryDy=0;fillColor=#96EEFF;" parent="1" edge="1">
          <mxGeometry width="50" height="50" relative="1" as="geometry">
            <mxPoint x="250" y="558.34" as="sourcePoint" />
            <mxPoint x="520" y="558.34" as="targetPoint" />
          </mxGeometry>
        </mxCell>
        <mxCell id="cBjfW2Xew3AkW9xZPRjr-23" value="" style="shape=flexArrow;endArrow=classic;html=1;rounded=0;width=7;endSize=11.69;entryX=1;entryY=0.25;entryDx=0;entryDy=0;fillColor=#96EEFF;exitX=0;exitY=0.156;exitDx=0;exitDy=0;exitPerimeter=0;" parent="1" edge="1">
          <mxGeometry width="50" height="50" relative="1" as="geometry">
            <mxPoint x="530" y="480" as="sourcePoint" />
            <mxPoint x="250" y="480.02" as="targetPoint" />
          </mxGeometry>
        </mxCell>
        <mxCell id="cBjfW2Xew3AkW9xZPRjr-25" value="" style="shape=flexArrow;endArrow=classic;html=1;rounded=0;width=7;endSize=11.69;entryX=0.333;entryY=0;entryDx=0;entryDy=0;entryPerimeter=0;fillColor=#96EEFF;" parent="1" edge="1">
          <mxGeometry width="50" height="50" relative="1" as="geometry">
            <mxPoint x="620" y="580" as="sourcePoint" />
            <mxPoint x="619.5" y="748.34" as="targetPoint" />
          </mxGeometry>
        </mxCell>
        <mxCell id="cBjfW2Xew3AkW9xZPRjr-26" value="" style="shape=flexArrow;endArrow=classic;html=1;rounded=0;width=7;endSize=11.69;entryX=0;entryY=0;entryDx=0;entryDy=82.5;entryPerimeter=0;fillColor=#96EEFF;" parent="1" edge="1">
          <mxGeometry width="50" height="50" relative="1" as="geometry">
            <mxPoint x="170" y="830" as="sourcePoint" />
            <mxPoint x="550" y="832.5" as="targetPoint" />
          </mxGeometry>
        </mxCell>
        <mxCell id="cBjfW2Xew3AkW9xZPRjr-27" value="" style="shape=flexArrow;endArrow=classic;html=1;rounded=0;width=7;endSize=11.69;entryX=0.5;entryY=1;entryDx=0;entryDy=0;exitX=0.5;exitY=0;exitDx=0;exitDy=0;fillColor=#96EEFF;" parent="1" edge="1">
          <mxGeometry width="50" height="50" relative="1" as="geometry">
            <mxPoint x="110" y="1000" as="sourcePoint" />
            <mxPoint x="110" y="870" as="targetPoint" />
          </mxGeometry>
        </mxCell>
        <mxCell id="cBjfW2Xew3AkW9xZPRjr-29" style="edgeStyle=orthogonalEdgeStyle;rounded=0;orthogonalLoop=1;jettySize=auto;html=1;exitX=0.855;exitY=1;exitDx=0;exitDy=-4.35;exitPerimeter=0;entryX=0.856;entryY=0.917;entryDx=0;entryDy=0;entryPerimeter=0;" parent="1" edge="1">
          <mxGeometry relative="1" as="geometry">
            <mxPoint x="652.5999999999999" y="885.6500000000001" as="sourcePoint" />
            <mxPoint x="652.7199999999998" y="878.3800000000001" as="targetPoint" />
          </mxGeometry>
        </mxCell>
        <mxCell id="cBjfW2Xew3AkW9xZPRjr-30" value="&lt;font style=&quot;font-size: 40px;&quot;&gt;Sales Analytics CDC Pipeline Architecture diagram&lt;/font&gt;" style="text;html=1;align=center;verticalAlign=middle;resizable=0;points=[];autosize=1;strokeColor=none;fillColor=none;" parent="1" vertex="1">
          <mxGeometry x="-150" y="20" width="920" height="60" as="geometry" />
        </mxCell>
        <mxCell id="yolbm6bxUlIt4TcBzOvf-1" value="" style="sketch=0;points=[[0,0,0],[0.25,0,0],[0.5,0,0],[0.75,0,0],[1,0,0],[0,1,0],[0.25,1,0],[0.5,1,0],[0.75,1,0],[1,1,0],[0,0.25,0],[0,0.5,0],[0,0.75,0],[1,0.25,0],[1,0.5,0],[1,0.75,0]];outlineConnect=0;fontColor=#232F3E;fillColor=#C925D1;strokeColor=#ffffff;dashed=0;verticalLabelPosition=bottom;verticalAlign=top;align=center;html=1;fontSize=12;fontStyle=0;aspect=fixed;shape=mxgraph.aws4.resourceIcon;resIcon=mxgraph.aws4.dynamodb;" vertex="1" parent="1">
          <mxGeometry x="-160" y="160" width="120" height="120" as="geometry" />
        </mxCell>
        <mxCell id="yolbm6bxUlIt4TcBzOvf-2" value="&lt;font style=&quot;font-size: 20px;&quot;&gt;DynamoDB&lt;/font&gt;" style="text;html=1;align=center;verticalAlign=middle;resizable=0;points=[];autosize=1;strokeColor=none;fillColor=none;" vertex="1" parent="1">
          <mxGeometry x="-165" y="285" width="130" height="40" as="geometry" />
        </mxCell>
        <mxCell id="yolbm6bxUlIt4TcBzOvf-4" value="" style="sketch=0;outlineConnect=0;fontColor=#232F3E;gradientColor=none;fillColor=#2B38ED;strokeColor=none;dashed=0;verticalLabelPosition=bottom;verticalAlign=top;align=center;html=1;fontSize=12;fontStyle=0;aspect=fixed;pointerEvents=1;shape=mxgraph.aws4.lambda_function;" vertex="1" parent="1">
          <mxGeometry x="70" y="435" width="170" height="170" as="geometry" />
        </mxCell>
        <mxCell id="yolbm6bxUlIt4TcBzOvf-7" value="&lt;font style=&quot;font-size: 20px;&quot;&gt;AWS Lambda&lt;/font&gt;" style="text;html=1;align=center;verticalAlign=middle;resizable=0;points=[];autosize=1;strokeColor=none;fillColor=none;rotation=-1;opacity=0;" vertex="1" parent="1">
          <mxGeometry x="-80" y="500" width="150" height="40" as="geometry" />
        </mxCell>
        <mxCell id="yolbm6bxUlIt4TcBzOvf-8" value="" style="sketch=0;outlineConnect=0;fontColor=#232F3E;gradientColor=none;fillColor=#7AA116;strokeColor=none;dashed=0;verticalLabelPosition=bottom;verticalAlign=top;align=center;html=1;fontSize=12;fontStyle=0;aspect=fixed;pointerEvents=1;shape=mxgraph.aws4.bucket;" vertex="1" parent="1">
          <mxGeometry x="560" y="760" width="134.62" height="140" as="geometry" />
        </mxCell>
        <mxCell id="yolbm6bxUlIt4TcBzOvf-9" value="" style="sketch=0;points=[[0,0,0],[0.25,0,0],[0.5,0,0],[0.75,0,0],[1,0,0],[0,1,0],[0.25,1,0],[0.5,1,0],[0.75,1,0],[1,1,0],[0,0.25,0],[0,0.5,0],[0,0.75,0],[1,0.25,0],[1,0.5,0],[1,0.75,0]];outlineConnect=0;fontColor=#232F3E;fillColor=#8C4FFF;strokeColor=#ffffff;dashed=0;verticalLabelPosition=bottom;verticalAlign=top;align=center;html=1;fontSize=12;fontStyle=0;aspect=fixed;shape=mxgraph.aws4.resourceIcon;resIcon=mxgraph.aws4.athena;" vertex="1" parent="1">
          <mxGeometry x="40" y="1000" width="160" height="160" as="geometry" />
        </mxCell>
        <mxCell id="yolbm6bxUlIt4TcBzOvf-10" value="" style="sketch=0;points=[[0,0,0],[0.25,0,0],[0.5,0,0],[0.75,0,0],[1,0,0],[0,1,0],[0.25,1,0],[0.5,1,0],[0.75,1,0],[1,1,0],[0,0.25,0],[0,0.5,0],[0,0.75,0],[1,0.25,0],[1,0.5,0],[1,0.75,0]];outlineConnect=0;fontColor=#232F3E;fillColor=#8C4FFF;strokeColor=#ffffff;dashed=0;verticalLabelPosition=bottom;verticalAlign=top;align=center;html=1;fontSize=12;fontStyle=0;aspect=fixed;shape=mxgraph.aws4.resourceIcon;resIcon=mxgraph.aws4.kinesis_data_firehose;rotation=-180;" vertex="1" parent="1">
          <mxGeometry x="550" y="440" width="128.34" height="128.34" as="geometry" />
        </mxCell>
        <mxCell id="yolbm6bxUlIt4TcBzOvf-11" value="" style="sketch=0;points=[[0,0,0],[0.25,0,0],[0.5,0,0],[0.75,0,0],[1,0,0],[0,1,0],[0.25,1,0],[0.5,1,0],[0.75,1,0],[1,1,0],[0,0.25,0],[0,0.5,0],[0,0.75,0],[1,0.25,0],[1,0.5,0],[1,0.75,0]];outlineConnect=0;fontColor=#232F3E;fillColor=#8C4FFF;strokeColor=#ffffff;dashed=0;verticalLabelPosition=bottom;verticalAlign=top;align=center;html=1;fontSize=12;fontStyle=0;aspect=fixed;shape=mxgraph.aws4.resourceIcon;resIcon=mxgraph.aws4.kinesis;" vertex="1" parent="1">
          <mxGeometry x="550" y="160" width="120" height="120" as="geometry" />
        </mxCell>
        <mxCell id="yolbm6bxUlIt4TcBzOvf-12" value="&lt;font style=&quot;font-size: 20px;&quot;&gt;Kinesis Stream&lt;/font&gt;" style="text;html=1;align=center;verticalAlign=middle;resizable=0;points=[];autosize=1;strokeColor=none;fillColor=none;" vertex="1" parent="1">
          <mxGeometry x="694.62" y="200" width="160" height="40" as="geometry" />
        </mxCell>
        <mxCell id="yolbm6bxUlIt4TcBzOvf-13" value="&lt;span style=&quot;font-size: 20px;&quot;&gt;Kinesis Firehose&lt;/span&gt;" style="text;html=1;align=center;verticalAlign=middle;resizable=0;points=[];autosize=1;strokeColor=none;fillColor=none;" vertex="1" parent="1">
          <mxGeometry x="700" y="470" width="170" height="40" as="geometry" />
        </mxCell>
        <mxCell id="yolbm6bxUlIt4TcBzOvf-14" value="&lt;font style=&quot;font-size: 20px;&quot;&gt;S3 Bucket&lt;/font&gt;" style="text;html=1;align=center;verticalAlign=middle;resizable=0;points=[];autosize=1;strokeColor=none;fillColor=none;" vertex="1" parent="1">
          <mxGeometry x="710" y="810" width="110" height="40" as="geometry" />
        </mxCell>
        <mxCell id="yolbm6bxUlIt4TcBzOvf-15" value="&lt;span style=&quot;font-size: 20px;&quot;&gt;AWS Athena&lt;/span&gt;" style="text;html=1;align=center;verticalAlign=middle;resizable=0;points=[];autosize=1;strokeColor=none;fillColor=none;" vertex="1" parent="1">
          <mxGeometry x="-105" y="1060" width="140" height="40" as="geometry" />
        </mxCell>
        <mxCell id="yolbm6bxUlIt4TcBzOvf-19" value="" style="sketch=0;points=[[0,0,0],[0.25,0,0],[0.5,0,0],[0.75,0,0],[1,0,0],[0,1,0],[0.25,1,0],[0.5,1,0],[0.75,1,0],[1,1,0],[0,0.25,0],[0,0.5,0],[0,0.75,0],[1,0.25,0],[1,0.5,0],[1,0.75,0]];outlineConnect=0;fontColor=#232F3E;fillColor=#8C4FFF;strokeColor=#ffffff;dashed=0;verticalLabelPosition=bottom;verticalAlign=top;align=center;html=1;fontSize=12;fontStyle=0;aspect=fixed;shape=mxgraph.aws4.resourceIcon;resIcon=mxgraph.aws4.glue;" vertex="1" parent="1">
          <mxGeometry x="60" y="770" width="100" height="100" as="geometry" />
        </mxCell>
        <mxCell id="yolbm6bxUlIt4TcBzOvf-20" value="&lt;font style=&quot;font-size: 20px;&quot;&gt;Glue Crawler&lt;/font&gt;" style="text;html=1;align=center;verticalAlign=middle;resizable=0;points=[];autosize=1;strokeColor=none;fillColor=none;" vertex="1" parent="1">
          <mxGeometry x="-75" y="800" width="140" height="40" as="geometry" />
        </mxCell>
      </root>
    </mxGraphModel>
  </diagram>
</mxfile>
